# xmcd CD database file
#
# Track frame offsets:
#	150
#	12812
#	24420
#	36262
#	49312
#	58637
#	76237
#	86275
#	101812
#	114600
#	125962
#	138175
#	149925
#	160425
#	171000
#	193087
#	202630
#	214887
#	225375
#	236050
#	246275
#	260800
#	272475
#	283575
#	293962
#
# Disc length: 4129 seconds
#
# Revision: 2
# Processed by: cddbd v1.5.2PL0 Copyright (c) Steve Scherf et al.
# Submitted via: jetAudio 5
#
DISCID=77101f19
DTITLE=Various Artist - The Best of Loma Records
DYEAR=1900
DGENRE=Soul
TTITLE0=Ike and Tina Turner - Finger Poppin
TTITLE1=Little Jerry William - I m The Laver Man
TTITLE2=Ike and Tina Turner - A Fool For A Fool
TTITLE3=Enchanters - I Wanna Thank You
TTITLE4=Invincibles - Heart Fool Of Love
TTITLE5=Ike and Tina Turner - Tail Her I m Not Home
TTITLE6=Olympics - Rainin In My Heart
TTITLE7=Enchanters - II Want To Be Love
TTITLE8=Enchanters - I Päid For The Party
TTITLE9=Olympics - Good Lovin
TTITLE10=Ike and Tina Turner - Just To Be With You
TTITLE11=Ike and Tina Turner - Somebody (Somewhere ) Needs You
TTITLE12=Walter Foster - Your Search Is Over
TTITLE13=Baby Lloyd - There s Something On Your Mind (part 1)
TTITLE14=Bobby Bennett and The Dynamics - Soul Jerk (part 1 and 2)
TTITLE15=Apollas - Lock Me In Your Heart
TTITLE16=Marvellos - Something s Burnin
TTITLE17=Apollas - You arre Absolutely Right
TTITLE18=Marvellos - We Go Together
TTITLE19=Invincibles - Cannot Win
TTITLE20=Mary Lee Whitney - Don t Come A Knockin
TTITLE21=Marvellos - Why Do Want To Hurt The One That Loves You
TTITLE22=Marvellos - You are Such A Sweet Thing
TTITLE23=Invincibles - I Couldn t Stand It
TTITLE24=Lorrains Ellison - Stay With Ma
EXTD=warner archives Loma records 9362-45711-2
EXTT0=
EXTT1=
EXTT2=
EXTT3=
EXTT4=
EXTT5=
EXTT6=
EXTT7=
EXTT8=
EXTT9=
EXTT10=
EXTT11=
EXTT12=
EXTT13=
EXTT14=
EXTT15=
EXTT16=
EXTT17=
EXTT18=
EXTT19=
EXTT20=
EXTT21=
EXTT22=
EXTT23=
EXTT24=
PLAYORDER=
